<svg xmlns="http://www.w3.org/2000/svg" xmlns:xlink="http://www.w3.org/1999/xlink" width="512" zoomAndPan="magnify" viewBox="0 0 384 383.999986" height="512" preserveAspectRatio="xMidYMid meet" version="1.0"><defs><clipPath id="ddec6bd3ea"><path d="M 22.886719 54.527344 L 360.921875 54.527344 L 360.921875 297.210938 L 22.886719 297.210938 Z M 22.886719 54.527344 " clip-rule="nonzero"/></clipPath><clipPath id="ca7c37ae28"><path d="M 361.105469 74.027344 L 361.105469 277.964844 C 361.105469 283.136719 359.050781 288.09375 355.394531 291.753906 C 351.738281 295.410156 346.777344 297.464844 341.605469 297.464844 L 42.386719 297.464844 C 37.214844 297.464844 32.253906 295.410156 28.597656 291.753906 C 24.941406 288.09375 22.886719 283.136719 22.886719 277.964844 L 22.886719 74.027344 C 22.886719 68.855469 24.941406 63.894531 28.597656 60.238281 C 32.253906 56.582031 37.214844 54.527344 42.386719 54.527344 L 341.605469 54.527344 C 346.777344 54.527344 351.738281 56.582031 355.394531 60.238281 C 359.050781 63.894531 361.105469 68.855469 361.105469 74.027344 Z M 361.105469 74.027344 " clip-rule="nonzero"/></clipPath><linearGradient x1="0" gradientTransform="matrix(2.650385, 0, 0, 2.650385, 0, 0.000000000000014211)" y1="58.162998" x2="161.8633" gradientUnits="userSpaceOnUse" y2="58.162998" id="f9a294963b"><stop stop-opacity="1" stop-color="rgb(100%, 96.859741%, 67.83905%)" offset="0"/><stop stop-opacity="1" stop-color="rgb(100%, 96.739197%, 67.955017%)" offset="0.0078125"/><stop stop-opacity="1" stop-color="rgb(100%, 96.50116%, 68.188477%)" offset="0.015625"/><stop stop-opacity="1" stop-color="rgb(100%, 96.261597%, 68.42041%)" offset="0.0234375"/><stop stop-opacity="1" stop-color="rgb(100%, 96.02356%, 68.65387%)" offset="0.03125"/><stop stop-opacity="1" stop-color="rgb(100%, 95.783997%, 68.885803%)" offset="0.0390625"/><stop stop-opacity="1" stop-color="rgb(100%, 95.544434%, 69.119263%)" offset="0.046875"/><stop stop-opacity="1" stop-color="rgb(100%, 95.306396%, 69.351196%)" offset="0.0546875"/><stop stop-opacity="1" stop-color="rgb(100%, 95.066833%, 69.584656%)" offset="0.0625"/><stop stop-opacity="1" stop-color="rgb(100%, 94.828796%, 69.816589%)" offset="0.0703125"/><stop stop-opacity="1" stop-color="rgb(100%, 94.589233%, 70.050049%)" offset="0.078125"/><stop stop-opacity="1" stop-color="rgb(100%, 94.351196%, 70.283508%)" offset="0.0859375"/><stop stop-opacity="1" stop-color="rgb(100%, 94.111633%, 70.515442%)" offset="0.09375"/><stop stop-opacity="1" stop-color="rgb(100%, 93.873596%, 70.748901%)" offset="0.101562"/><stop stop-opacity="1" stop-color="rgb(100%, 93.634033%, 70.980835%)" offset="0.109375"/><stop stop-opacity="1" stop-color="rgb(100%, 93.395996%, 71.214294%)" offset="0.117187"/><stop stop-opacity="1" stop-color="rgb(100%, 93.156433%, 71.446228%)" offset="0.125"/><stop stop-opacity="1" stop-color="rgb(100%, 92.918396%, 71.679688%)" offset="0.132812"/><stop stop-opacity="1" stop-color="rgb(100%, 92.678833%, 71.911621%)" offset="0.140625"/><stop stop-opacity="1" stop-color="rgb(100%, 92.440796%, 72.145081%)" offset="0.148438"/><stop stop-opacity="1" stop-color="rgb(100%, 92.201233%, 72.377014%)" offset="0.15625"/><stop stop-opacity="1" stop-color="rgb(100%, 91.96167%, 72.610474%)" offset="0.164063"/><stop stop-opacity="1" stop-color="rgb(100%, 91.723633%, 72.843933%)" offset="0.171875"/><stop stop-opacity="1" stop-color="rgb(100%, 91.48407%, 73.075867%)" offset="0.179687"/><stop stop-opacity="1" stop-color="rgb(100%, 91.246033%, 73.309326%)" offset="0.1875"/><stop stop-opacity="1" stop-color="rgb(100%, 91.00647%, 73.54126%)" offset="0.195312"/><stop stop-opacity="1" stop-color="rgb(100%, 90.768433%, 73.774719%)" offset="0.203125"/><stop stop-opacity="1" stop-color="rgb(100%, 90.52887%, 74.006653%)" offset="0.210938"/><stop stop-opacity="1" stop-color="rgb(100%, 90.290833%, 74.240112%)" offset="0.21875"/><stop stop-opacity="1" stop-color="rgb(100%, 90.05127%, 74.472046%)" offset="0.226562"/><stop stop-opacity="1" stop-color="rgb(100%, 89.813232%, 74.705505%)" offset="0.234375"/><stop stop-opacity="1" stop-color="rgb(100%, 89.573669%, 74.937439%)" offset="0.242188"/><stop stop-opacity="1" stop-color="rgb(100%, 89.335632%, 75.170898%)" offset="0.25"/><stop stop-opacity="1" stop-color="rgb(100%, 89.096069%, 75.404358%)" offset="0.257812"/><stop stop-opacity="1" stop-color="rgb(100%, 88.856506%, 75.636292%)" offset="0.265625"/><stop stop-opacity="1" stop-color="rgb(100%, 88.618469%, 75.869751%)" offset="0.273437"/><stop stop-opacity="1" stop-color="rgb(100%, 88.378906%, 76.101685%)" offset="0.28125"/><stop stop-opacity="1" stop-color="rgb(100%, 88.140869%, 76.335144%)" offset="0.289062"/><stop stop-opacity="1" stop-color="rgb(100%, 87.901306%, 76.567078%)" offset="0.296875"/><stop stop-opacity="1" stop-color="rgb(100%, 87.663269%, 76.800537%)" offset="0.304688"/><stop stop-opacity="1" stop-color="rgb(100%, 87.423706%, 77.032471%)" offset="0.3125"/><stop stop-opacity="1" stop-color="rgb(100%, 87.185669%, 77.26593%)" offset="0.320312"/><stop stop-opacity="1" stop-color="rgb(100%, 86.946106%, 77.497864%)" offset="0.328125"/><stop stop-opacity="1" stop-color="rgb(100%, 86.708069%, 77.731323%)" offset="0.335938"/><stop stop-opacity="1" stop-color="rgb(100%, 86.468506%, 77.963257%)" offset="0.34375"/><stop stop-opacity="1" stop-color="rgb(100%, 86.230469%, 78.196716%)" offset="0.351562"/><stop stop-opacity="1" stop-color="rgb(100%, 85.990906%, 78.430176%)" offset="0.359375"/><stop stop-opacity="1" stop-color="rgb(100%, 85.752869%, 78.662109%)" offset="0.367187"/><stop stop-opacity="1" stop-color="rgb(100%, 85.513306%, 78.895569%)" offset="0.375"/><stop stop-opacity="1" stop-color="rgb(100%, 85.273743%, 79.127502%)" offset="0.382812"/><stop stop-opacity="1" stop-color="rgb(100%, 85.035706%, 79.360962%)" offset="0.390625"/><stop stop-opacity="1" stop-color="rgb(100%, 84.796143%, 79.592896%)" offset="0.398438"/><stop stop-opacity="1" stop-color="rgb(100%, 84.558105%, 79.826355%)" offset="0.40625"/><stop stop-opacity="1" stop-color="rgb(100%, 84.318542%, 80.058289%)" offset="0.414062"/><stop stop-opacity="1" stop-color="rgb(100%, 84.080505%, 80.291748%)" offset="0.421875"/><stop stop-opacity="1" stop-color="rgb(100%, 83.840942%, 80.523682%)" offset="0.429688"/><stop stop-opacity="1" stop-color="rgb(100%, 83.602905%, 80.757141%)" offset="0.4375"/><stop stop-opacity="1" stop-color="rgb(100%, 83.363342%, 80.990601%)" offset="0.445312"/><stop stop-opacity="1" stop-color="rgb(100%, 83.125305%, 81.222534%)" offset="0.453125"/><stop stop-opacity="1" stop-color="rgb(100%, 82.885742%, 81.455994%)" offset="0.460937"/><stop stop-opacity="1" stop-color="rgb(100%, 82.647705%, 81.687927%)" offset="0.46875"/><stop stop-opacity="1" stop-color="rgb(100%, 82.408142%, 81.921387%)" offset="0.476562"/><stop stop-opacity="1" stop-color="rgb(100%, 82.168579%, 82.15332%)" offset="0.484375"/><stop stop-opacity="1" stop-color="rgb(100%, 81.930542%, 82.38678%)" offset="0.492188"/><stop stop-opacity="1" stop-color="rgb(100%, 81.690979%, 82.618713%)" offset="0.5"/><stop stop-opacity="1" stop-color="rgb(100%, 81.452942%, 82.852173%)" offset="0.507813"/><stop stop-opacity="1" stop-color="rgb(100%, 81.213379%, 83.084106%)" offset="0.515625"/><stop stop-opacity="1" stop-color="rgb(100%, 80.975342%, 83.317566%)" offset="0.523438"/><stop stop-opacity="1" stop-color="rgb(100%, 80.735779%, 83.551025%)" offset="0.53125"/><stop stop-opacity="1" stop-color="rgb(100%, 80.497742%, 83.782959%)" offset="0.539062"/><stop stop-opacity="1" stop-color="rgb(100%, 80.258179%, 84.016418%)" offset="0.546875"/><stop stop-opacity="1" stop-color="rgb(100%, 80.020142%, 84.248352%)" offset="0.554688"/><stop stop-opacity="1" stop-color="rgb(100%, 79.780579%, 84.481812%)" offset="0.5625"/><stop stop-opacity="1" stop-color="rgb(100%, 79.542542%, 84.713745%)" offset="0.570312"/><stop stop-opacity="1" stop-color="rgb(100%, 79.302979%, 84.947205%)" offset="0.578125"/><stop stop-opacity="1" stop-color="rgb(100%, 79.064941%, 85.179138%)" offset="0.585938"/><stop stop-opacity="1" stop-color="rgb(100%, 78.825378%, 85.412598%)" offset="0.59375"/><stop stop-opacity="1" stop-color="rgb(100%, 78.585815%, 85.644531%)" offset="0.601562"/><stop stop-opacity="1" stop-color="rgb(100%, 78.347778%, 85.877991%)" offset="0.609375"/><stop stop-opacity="1" stop-color="rgb(100%, 78.108215%, 86.11145%)" offset="0.617188"/><stop stop-opacity="1" stop-color="rgb(100%, 77.870178%, 86.343384%)" offset="0.625"/><stop stop-opacity="1" stop-color="rgb(100%, 77.630615%, 86.576843%)" offset="0.632812"/><stop stop-opacity="1" stop-color="rgb(100%, 77.392578%, 86.808777%)" offset="0.640625"/><stop stop-opacity="1" stop-color="rgb(100%, 77.153015%, 87.042236%)" offset="0.648438"/><stop stop-opacity="1" stop-color="rgb(100%, 76.914978%, 87.27417%)" offset="0.65625"/><stop stop-opacity="1" stop-color="rgb(100%, 76.675415%, 87.507629%)" offset="0.664062"/><stop stop-opacity="1" stop-color="rgb(100%, 76.437378%, 87.739563%)" offset="0.671875"/><stop stop-opacity="1" stop-color="rgb(100%, 76.197815%, 87.973022%)" offset="0.679687"/><stop stop-opacity="1" stop-color="rgb(100%, 75.959778%, 88.204956%)" offset="0.6875"/><stop stop-opacity="1" stop-color="rgb(100%, 75.720215%, 88.438416%)" offset="0.695312"/><stop stop-opacity="1" stop-color="rgb(100%, 75.482178%, 88.671875%)" offset="0.703125"/><stop stop-opacity="1" stop-color="rgb(100%, 75.242615%, 88.903809%)" offset="0.710938"/><stop stop-opacity="1" stop-color="rgb(100%, 75.003052%, 89.137268%)" offset="0.71875"/><stop stop-opacity="1" stop-color="rgb(100%, 74.765015%, 89.369202%)" offset="0.726562"/><stop stop-opacity="1" stop-color="rgb(100%, 74.525452%, 89.602661%)" offset="0.734375"/><stop stop-opacity="1" stop-color="rgb(100%, 74.287415%, 89.834595%)" offset="0.742188"/><stop stop-opacity="1" stop-color="rgb(100%, 74.047852%, 90.068054%)" offset="0.75"/><stop stop-opacity="1" stop-color="rgb(100%, 73.809814%, 90.299988%)" offset="0.757812"/><stop stop-opacity="1" stop-color="rgb(100%, 73.570251%, 90.533447%)" offset="0.765625"/><stop stop-opacity="1" stop-color="rgb(100%, 73.332214%, 90.765381%)" offset="0.773438"/><stop stop-opacity="1" stop-color="rgb(100%, 73.092651%, 90.99884%)" offset="0.78125"/><stop stop-opacity="1" stop-color="rgb(100%, 72.854614%, 91.230774%)" offset="0.789062"/><stop stop-opacity="1" stop-color="rgb(100%, 72.615051%, 91.464233%)" offset="0.796875"/><stop stop-opacity="1" stop-color="rgb(100%, 72.377014%, 91.697693%)" offset="0.804688"/><stop stop-opacity="1" stop-color="rgb(100%, 72.137451%, 91.929626%)" offset="0.8125"/><stop stop-opacity="1" stop-color="rgb(100%, 71.897888%, 92.163086%)" offset="0.820312"/><stop stop-opacity="1" stop-color="rgb(100%, 71.659851%, 92.39502%)" offset="0.828125"/><stop stop-opacity="1" stop-color="rgb(100%, 71.420288%, 92.628479%)" offset="0.835938"/><stop stop-opacity="1" stop-color="rgb(100%, 71.182251%, 92.860413%)" offset="0.84375"/><stop stop-opacity="1" stop-color="rgb(100%, 70.942688%, 93.093872%)" offset="0.851562"/><stop stop-opacity="1" stop-color="rgb(100%, 70.704651%, 93.325806%)" offset="0.859375"/><stop stop-opacity="1" stop-color="rgb(100%, 70.465088%, 93.559265%)" offset="0.867187"/><stop stop-opacity="1" stop-color="rgb(100%, 70.227051%, 93.791199%)" offset="0.875"/><stop stop-opacity="1" stop-color="rgb(100%, 69.987488%, 94.024658%)" offset="0.882812"/><stop stop-opacity="1" stop-color="rgb(100%, 69.749451%, 94.258118%)" offset="0.890625"/><stop stop-opacity="1" stop-color="rgb(100%, 69.509888%, 94.490051%)" offset="0.898437"/><stop stop-opacity="1" stop-color="rgb(100%, 69.271851%, 94.723511%)" offset="0.90625"/><stop stop-opacity="1" stop-color="rgb(100%, 69.032288%, 94.955444%)" offset="0.914062"/><stop stop-opacity="1" stop-color="rgb(100%, 68.79425%, 95.188904%)" offset="0.921875"/><stop stop-opacity="1" stop-color="rgb(100%, 68.554688%, 95.420837%)" offset="0.929688"/><stop stop-opacity="1" stop-color="rgb(100%, 68.315125%, 95.654297%)" offset="0.9375"/><stop stop-opacity="1" stop-color="rgb(100%, 68.077087%, 95.88623%)" offset="0.945312"/><stop stop-opacity="1" stop-color="rgb(100%, 67.837524%, 96.11969%)" offset="0.953125"/><stop stop-opacity="1" stop-color="rgb(100%, 67.599487%, 96.351624%)" offset="0.960938"/><stop stop-opacity="1" stop-color="rgb(100%, 67.359924%, 96.585083%)" offset="0.96875"/><stop stop-opacity="1" stop-color="rgb(100%, 67.121887%, 96.818542%)" offset="0.976562"/><stop stop-opacity="1" stop-color="rgb(100%, 66.882324%, 97.050476%)" offset="0.984375"/><stop stop-opacity="1" stop-color="rgb(100%, 66.644287%, 97.283936%)" offset="0.992188"/><stop stop-opacity="1" stop-color="rgb(100%, 66.404724%, 97.515869%)" offset="1"/></linearGradient><clipPath id="b208127e63"><path d="M 49.535156 123.890625 L 75.113281 123.890625 L 75.113281 149.464844 L 49.535156 149.464844 Z M 49.535156 123.890625 " clip-rule="nonzero"/></clipPath><clipPath id="b43d27f5d7"><path d="M 0.535156 0.890625 L 26.113281 0.890625 L 26.113281 26.464844 L 0.535156 26.464844 Z M 0.535156 0.890625 " clip-rule="nonzero"/></clipPath><clipPath id="f44b597b70"><rect x="0" width="27" y="0" height="27"/></clipPath><clipPath id="2c9e56edcb"><path d="M 92.761719 123.890625 L 118.335938 123.890625 L 118.335938 149.464844 L 92.761719 149.464844 Z M 92.761719 123.890625 " clip-rule="nonzero"/></clipPath><clipPath id="37d1a15ebc"><path d="M 0.761719 0.890625 L 26.335938 0.890625 L 26.335938 26.464844 L 0.761719 26.464844 Z M 0.761719 0.890625 " clip-rule="nonzero"/></clipPath><clipPath id="568dc1f6fc"><rect x="0" width="27" y="0" height="27"/></clipPath><clipPath id="8612336552"><path d="M 135.988281 123.890625 L 161.5625 123.890625 L 161.5625 149.464844 L 135.988281 149.464844 Z M 135.988281 123.890625 " clip-rule="nonzero"/></clipPath><clipPath id="44bcc783dd"><path d="M 0.988281 0.890625 L 26.5625 0.890625 L 26.5625 26.464844 L 0.988281 26.464844 Z M 0.988281 0.890625 " clip-rule="nonzero"/></clipPath><clipPath id="7f68dd9194"><rect x="0" width="27" y="0" height="27"/></clipPath><clipPath id="9a6f75e9b3"><path d="M 179.210938 123.890625 L 204.789062 123.890625 L 204.789062 149.464844 L 179.210938 149.464844 Z M 179.210938 123.890625 " clip-rule="nonzero"/></clipPath><clipPath id="392e1bf34e"><path d="M 0.210938 0.890625 L 25.789062 0.890625 L 25.789062 26.464844 L 0.210938 26.464844 Z M 0.210938 0.890625 " clip-rule="nonzero"/></clipPath><clipPath id="b739963d9f"><rect x="0" width="26" y="0" height="27"/></clipPath><clipPath id="090ce66db4"><path d="M 222.4375 123.890625 L 248.011719 123.890625 L 248.011719 149.464844 L 222.4375 149.464844 Z M 222.4375 123.890625 " clip-rule="nonzero"/></clipPath><clipPath id="4d36aad293"><path d="M 0.4375 0.890625 L 26.011719 0.890625 L 26.011719 26.464844 L 0.4375 26.464844 Z M 0.4375 0.890625 " clip-rule="nonzero"/></clipPath><clipPath id="66675a28d5"><rect x="0" width="27" y="0" height="27"/></clipPath><clipPath id="2e1698186f"><path d="M 265.664062 123.890625 L 291.238281 123.890625 L 291.238281 149.464844 L 265.664062 149.464844 Z M 265.664062 123.890625 " clip-rule="nonzero"/></clipPath><clipPath id="daa434ec3c"><path d="M 0.664062 0.890625 L 26.238281 0.890625 L 26.238281 26.464844 L 0.664062 26.464844 Z M 0.664062 0.890625 " clip-rule="nonzero"/></clipPath><clipPath id="b14f7dac7f"><rect x="0" width="27" y="0" height="27"/></clipPath><clipPath id="ea44b52e8f"><path d="M 308.886719 123.890625 L 334.464844 123.890625 L 334.464844 149.464844 L 308.886719 149.464844 Z M 308.886719 123.890625 " clip-rule="nonzero"/></clipPath><clipPath id="629863b665"><path d="M 0.886719 0.890625 L 26.464844 0.890625 L 26.464844 26.464844 L 0.886719 26.464844 Z M 0.886719 0.890625 " clip-rule="nonzero"/></clipPath><clipPath id="6e36db50ac"><rect x="0" width="27" y="0" height="27"/></clipPath><clipPath id="5391087fcd"><path d="M 49.535156 161.832031 L 75.113281 161.832031 L 75.113281 187.40625 L 49.535156 187.40625 Z M 49.535156 161.832031 " clip-rule="nonzero"/></clipPath><clipPath id="7e5774bd17"><path d="M 0.535156 0.832031 L 26.113281 0.832031 L 26.113281 26.40625 L 0.535156 26.40625 Z M 0.535156 0.832031 " clip-rule="nonzero"/></clipPath><clipPath id="b6de959ea3"><rect x="0" width="27" y="0" height="27"/></clipPath><clipPath id="f9b70f0b9c"><path d="M 92.761719 161.832031 L 118.335938 161.832031 L 118.335938 187.40625 L 92.761719 187.40625 Z M 92.761719 161.832031 " clip-rule="nonzero"/></clipPath><clipPath id="cad650e110"><path d="M 0.761719 0.832031 L 26.335938 0.832031 L 26.335938 26.40625 L 0.761719 26.40625 Z M 0.761719 0.832031 " clip-rule="nonzero"/></clipPath><clipPath id="e975775134"><rect x="0" width="27" y="0" height="27"/></clipPath><clipPath id="9dfa84a85c"><path d="M 135.988281 161.832031 L 161.5625 161.832031 L 161.5625 187.40625 L 135.988281 187.40625 Z M 135.988281 161.832031 " clip-rule="nonzero"/></clipPath><clipPath id="8c6ab47f45"><path d="M 0.988281 0.832031 L 26.5625 0.832031 L 26.5625 26.40625 L 0.988281 26.40625 Z M 0.988281 0.832031 " clip-rule="nonzero"/></clipPath><clipPath id="eecc10d4d0"><rect x="0" width="27" y="0" height="27"/></clipPath><clipPath id="eebfaebf0e"><path d="M 179.210938 161.832031 L 204.789062 161.832031 L 204.789062 187.40625 L 179.210938 187.40625 Z M 179.210938 161.832031 " clip-rule="nonzero"/></clipPath><clipPath id="a628baadc0"><path d="M 0.210938 0.832031 L 25.789062 0.832031 L 25.789062 26.40625 L 0.210938 26.40625 Z M 0.210938 0.832031 " clip-rule="nonzero"/></clipPath><clipPath id="68fd040237"><rect x="0" width="26" y="0" height="27"/></clipPath><clipPath id="b1bf96aa53"><path d="M 222.4375 161.832031 L 248.011719 161.832031 L 248.011719 187.40625 L 222.4375 187.40625 Z M 222.4375 161.832031 " clip-rule="nonzero"/></clipPath><clipPath id="460b230d98"><path d="M 0.4375 0.832031 L 26.011719 0.832031 L 26.011719 26.40625 L 0.4375 26.40625 Z M 0.4375 0.832031 " clip-rule="nonzero"/></clipPath><clipPath id="aaa3a7f870"><rect x="0" width="27" y="0" height="27"/></clipPath><clipPath id="af656e3850"><path d="M 265.664062 161.832031 L 291.238281 161.832031 L 291.238281 187.40625 L 265.664062 187.40625 Z M 265.664062 161.832031 " clip-rule="nonzero"/></clipPath><clipPath id="37d75e9d92"><path d="M 0.664062 0.832031 L 26.238281 0.832031 L 26.238281 26.40625 L 0.664062 26.40625 Z M 0.664062 0.832031 " clip-rule="nonzero"/></clipPath><clipPath id="9b7aea97d1"><rect x="0" width="27" y="0" height="27"/></clipPath><clipPath id="34b9064906"><path d="M 308.886719 161.832031 L 334.464844 161.832031 L 334.464844 187.40625 L 308.886719 187.40625 Z M 308.886719 161.832031 " clip-rule="nonzero"/></clipPath><clipPath id="bd2218dcc9"><path d="M 0.886719 0.832031 L 26.464844 0.832031 L 26.464844 26.40625 L 0.886719 26.40625 Z M 0.886719 0.832031 " clip-rule="nonzero"/></clipPath><clipPath id="34bd773581"><rect x="0" width="27" y="0" height="27"/></clipPath><clipPath id="32f9827b91"><path d="M 49.535156 199.773438 L 75.113281 199.773438 L 75.113281 225.347656 L 49.535156 225.347656 Z M 49.535156 199.773438 " clip-rule="nonzero"/></clipPath><clipPath id="4bca2c9ad7"><path d="M 0.535156 0.773438 L 26.113281 0.773438 L 26.113281 26.347656 L 0.535156 26.347656 Z M 0.535156 0.773438 " clip-rule="nonzero"/></clipPath><clipPath id="8c8f73904b"><rect x="0" width="27" y="0" height="27"/></clipPath><clipPath id="590aa54e13"><path d="M 92.761719 199.773438 L 118.335938 199.773438 L 118.335938 225.347656 L 92.761719 225.347656 Z M 92.761719 199.773438 " clip-rule="nonzero"/></clipPath><clipPath id="5e6f8f987d"><path d="M 0.761719 0.773438 L 26.335938 0.773438 L 26.335938 26.347656 L 0.761719 26.347656 Z M 0.761719 0.773438 " clip-rule="nonzero"/></clipPath><clipPath id="b525c2b75f"><rect x="0" width="27" y="0" height="27"/></clipPath><clipPath id="6320cd9bad"><path d="M 135.988281 199.773438 L 161.5625 199.773438 L 161.5625 225.347656 L 135.988281 225.347656 Z M 135.988281 199.773438 " clip-rule="nonzero"/></clipPath><clipPath id="f1a32e2ab0"><path d="M 0.988281 0.773438 L 26.5625 0.773438 L 26.5625 26.347656 L 0.988281 26.347656 Z M 0.988281 0.773438 " clip-rule="nonzero"/></clipPath><clipPath id="16a5c97d16"><rect x="0" width="27" y="0" height="27"/></clipPath><clipPath id="b71bca718c"><path d="M 179.210938 199.773438 L 204.789062 199.773438 L 204.789062 225.347656 L 179.210938 225.347656 Z M 179.210938 199.773438 " clip-rule="nonzero"/></clipPath><clipPath id="210188a992"><path d="M 0.210938 0.773438 L 25.789062 0.773438 L 25.789062 26.347656 L 0.210938 26.347656 Z M 0.210938 0.773438 " clip-rule="nonzero"/></clipPath><clipPath id="8409296fda"><rect x="0" width="26" y="0" height="27"/></clipPath><clipPath id="1b7ef48c30"><path d="M 222.4375 199.773438 L 248.011719 199.773438 L 248.011719 225.347656 L 222.4375 225.347656 Z M 222.4375 199.773438 " clip-rule="nonzero"/></clipPath><clipPath id="8663164e0b"><path d="M 0.4375 0.773438 L 26.011719 0.773438 L 26.011719 26.347656 L 0.4375 26.347656 Z M 0.4375 0.773438 " clip-rule="nonzero"/></clipPath><clipPath id="535b22550a"><rect x="0" width="27" y="0" height="27"/></clipPath><clipPath id="f4287bc377"><path d="M 265.664062 199.773438 L 291.238281 199.773438 L 291.238281 225.347656 L 265.664062 225.347656 Z M 265.664062 199.773438 " clip-rule="nonzero"/></clipPath><clipPath id="700455accf"><path d="M 0.664062 0.773438 L 26.238281 0.773438 L 26.238281 26.347656 L 0.664062 26.347656 Z M 0.664062 0.773438 " clip-rule="nonzero"/></clipPath><clipPath id="5c4cd0590c"><rect x="0" width="27" y="0" height="27"/></clipPath><clipPath id="b170e49fa7"><path d="M 308.886719 199.773438 L 334.464844 199.773438 L 334.464844 225.347656 L 308.886719 225.347656 Z M 308.886719 199.773438 " clip-rule="nonzero"/></clipPath><clipPath id="117410c545"><path d="M 0.886719 0.773438 L 26.464844 0.773438 L 26.464844 26.347656 L 0.886719 26.347656 Z M 0.886719 0.773438 " clip-rule="nonzero"/></clipPath><clipPath id="7c21a0cc90"><rect x="0" width="27" y="0" height="27"/></clipPath><clipPath id="5dc610684b"><path d="M 49.535156 237.714844 L 75.113281 237.714844 L 75.113281 263.289062 L 49.535156 263.289062 Z M 49.535156 237.714844 " clip-rule="nonzero"/></clipPath><clipPath id="7edc2844e9"><path d="M 0.535156 0.714844 L 26.113281 0.714844 L 26.113281 26.289062 L 0.535156 26.289062 Z M 0.535156 0.714844 " clip-rule="nonzero"/></clipPath><clipPath id="efe72f9685"><rect x="0" width="27" y="0" height="27"/></clipPath><clipPath id="4a63ca0dbd"><path d="M 92.761719 237.714844 L 118.335938 237.714844 L 118.335938 263.289062 L 92.761719 263.289062 Z M 92.761719 237.714844 " clip-rule="nonzero"/></clipPath><clipPath id="30b991f003"><path d="M 0.761719 0.714844 L 26.335938 0.714844 L 26.335938 26.289062 L 0.761719 26.289062 Z M 0.761719 0.714844 " clip-rule="nonzero"/></clipPath><clipPath id="d712167981"><rect x="0" width="27" y="0" height="27"/></clipPath><clipPath id="9b5a9d9a4c"><path d="M 135.988281 237.714844 L 161.5625 237.714844 L 161.5625 263.289062 L 135.988281 263.289062 Z M 135.988281 237.714844 " clip-rule="nonzero"/></clipPath><clipPath id="a7ddf758e0"><path d="M 0.988281 0.714844 L 26.5625 0.714844 L 26.5625 26.289062 L 0.988281 26.289062 Z M 0.988281 0.714844 " clip-rule="nonzero"/></clipPath><clipPath id="75e94223f2"><rect x="0" width="27" y="0" height="27"/></clipPath><clipPath id="78ec1e2f76"><path d="M 179.210938 237.714844 L 204.789062 237.714844 L 204.789062 263.289062 L 179.210938 263.289062 Z M 179.210938 237.714844 " clip-rule="nonzero"/></clipPath><clipPath id="c463ab5d92"><path d="M 0.210938 0.714844 L 25.789062 0.714844 L 25.789062 26.289062 L 0.210938 26.289062 Z M 0.210938 0.714844 " clip-rule="nonzero"/></clipPath><clipPath id="bcea822626"><rect x="0" width="26" y="0" height="27"/></clipPath><clipPath id="e8c025b8be"><path d="M 222.4375 237.714844 L 248.011719 237.714844 L 248.011719 263.289062 L 222.4375 263.289062 Z M 222.4375 237.714844 " clip-rule="nonzero"/></clipPath><clipPath id="c72bc6acde"><path d="M 0.4375 0.714844 L 26.011719 0.714844 L 26.011719 26.289062 L 0.4375 26.289062 Z M 0.4375 0.714844 " clip-rule="nonzero"/></clipPath><clipPath id="3931887f36"><rect x="0" width="27" y="0" height="27"/></clipPath><clipPath id="4297ed9048"><path d="M 265.664062 237.714844 L 291.238281 237.714844 L 291.238281 263.289062 L 265.664062 263.289062 Z M 265.664062 237.714844 " clip-rule="nonzero"/></clipPath><clipPath id="79b2be3522"><path d="M 0.664062 0.714844 L 26.238281 0.714844 L 26.238281 26.289062 L 0.664062 26.289062 Z M 0.664062 0.714844 " clip-rule="nonzero"/></clipPath><clipPath id="3bdf014b4a"><rect x="0" width="27" y="0" height="27"/></clipPath><clipPath id="aa86f7cff3"><path d="M 308.886719 237.714844 L 334.464844 237.714844 L 334.464844 263.289062 L 308.886719 263.289062 Z M 308.886719 237.714844 " clip-rule="nonzero"/></clipPath><clipPath id="04fb3f248d"><path d="M 0.886719 0.714844 L 26.464844 0.714844 L 26.464844 26.289062 L 0.886719 26.289062 Z M 0.886719 0.714844 " clip-rule="nonzero"/></clipPath><clipPath id="21eae399f0"><rect x="0" width="27" y="0" height="27"/></clipPath><clipPath id="b72ee6a029"><path d="M 120.769531 79.464844 L 263.230469 79.464844 L 263.230469 105.039062 L 120.769531 105.039062 Z M 120.769531 79.464844 " clip-rule="nonzero"/></clipPath><clipPath id="ea4a8ac623"><path d="M 0.769531 0.464844 L 143.230469 0.464844 L 143.230469 26.039062 L 0.769531 26.039062 Z M 0.769531 0.464844 " clip-rule="nonzero"/></clipPath><linearGradient x1="0.00616422" gradientTransform="matrix(0.0999021, 0, 0, 0.0999021, 0.767744, 0.463515)" y1="128" x2="1426.0061" gradientUnits="userSpaceOnUse" y2="128" id="9e7acc527b"><stop stop-opacity="1" stop-color="rgb(100%, 96.859741%, 67.83905%)" offset="0"/><stop stop-opacity="1" stop-color="rgb(100%, 96.739197%, 67.955017%)" offset="0.0078125"/><stop stop-opacity="1" stop-color="rgb(100%, 96.499634%, 68.188477%)" offset="0.015625"/><stop stop-opacity="1" stop-color="rgb(100%, 96.261597%, 68.42041%)" offset="0.0234375"/><stop stop-opacity="1" stop-color="rgb(100%, 96.022034%, 68.65387%)" offset="0.03125"/><stop stop-opacity="1" stop-color="rgb(100%, 95.782471%, 68.887329%)" offset="0.0390625"/><stop stop-opacity="1" stop-color="rgb(100%, 95.544434%, 69.119263%)" offset="0.046875"/><stop stop-opacity="1" stop-color="rgb(100%, 95.304871%, 69.352722%)" offset="0.0546875"/><stop stop-opacity="1" stop-color="rgb(100%, 95.066833%, 69.586182%)" offset="0.0625"/><stop stop-opacity="1" stop-color="rgb(100%, 94.827271%, 69.818115%)" offset="0.0703125"/><stop stop-opacity="1" stop-color="rgb(100%, 94.587708%, 70.051575%)" offset="0.078125"/><stop stop-opacity="1" stop-color="rgb(100%, 94.34967%, 70.283508%)" offset="0.0859375"/><stop stop-opacity="1" stop-color="rgb(100%, 94.110107%, 70.516968%)" offset="0.09375"/><stop stop-opacity="1" stop-color="rgb(100%, 93.87207%, 70.750427%)" offset="0.101562"/><stop stop-opacity="1" stop-color="rgb(100%, 93.632507%, 70.982361%)" offset="0.109375"/><stop stop-opacity="1" stop-color="rgb(100%, 93.392944%, 71.21582%)" offset="0.117188"/><stop stop-opacity="1" stop-color="rgb(100%, 93.154907%, 71.44928%)" offset="0.125"/><stop stop-opacity="1" stop-color="rgb(100%, 92.915344%, 71.681213%)" offset="0.132812"/><stop stop-opacity="1" stop-color="rgb(100%, 92.675781%, 71.914673%)" offset="0.140625"/><stop stop-opacity="1" stop-color="rgb(100%, 92.437744%, 72.146606%)" offset="0.148438"/><stop stop-opacity="1" stop-color="rgb(100%, 92.198181%, 72.380066%)" offset="0.15625"/><stop stop-opacity="1" stop-color="rgb(100%, 91.960144%, 72.613525%)" offset="0.164063"/><stop stop-opacity="1" stop-color="rgb(100%, 91.720581%, 72.845459%)" offset="0.171875"/><stop stop-opacity="1" stop-color="rgb(100%, 91.481018%, 73.078918%)" offset="0.179688"/><stop stop-opacity="1" stop-color="rgb(100%, 91.242981%, 73.312378%)" offset="0.1875"/><stop stop-opacity="1" stop-color="rgb(100%, 91.003418%, 73.544312%)" offset="0.195312"/><stop stop-opacity="1" stop-color="rgb(100%, 90.765381%, 73.777771%)" offset="0.203125"/><stop stop-opacity="1" stop-color="rgb(100%, 90.525818%, 74.009705%)" offset="0.210937"/><stop stop-opacity="1" stop-color="rgb(100%, 90.286255%, 74.243164%)" offset="0.21875"/><stop stop-opacity="1" stop-color="rgb(100%, 90.048218%, 74.476624%)" offset="0.226562"/><stop stop-opacity="1" stop-color="rgb(100%, 89.808655%, 74.708557%)" offset="0.234375"/><stop stop-opacity="1" stop-color="rgb(100%, 89.569092%, 74.942017%)" offset="0.242188"/><stop stop-opacity="1" stop-color="rgb(100%, 89.331055%, 75.175476%)" offset="0.25"/><stop stop-opacity="1" stop-color="rgb(100%, 89.091492%, 75.40741%)" offset="0.257812"/><stop stop-opacity="1" stop-color="rgb(100%, 88.853455%, 75.640869%)" offset="0.265625"/><stop stop-opacity="1" stop-color="rgb(100%, 88.613892%, 75.872803%)" offset="0.273438"/><stop stop-opacity="1" stop-color="rgb(100%, 88.374329%, 76.106262%)" offset="0.28125"/><stop stop-opacity="1" stop-color="rgb(100%, 88.136292%, 76.339722%)" offset="0.289062"/><stop stop-opacity="1" stop-color="rgb(100%, 87.896729%, 76.571655%)" offset="0.296875"/><stop stop-opacity="1" stop-color="rgb(100%, 87.657166%, 76.805115%)" offset="0.304688"/><stop stop-opacity="1" stop-color="rgb(100%, 87.419128%, 77.038574%)" offset="0.3125"/><stop stop-opacity="1" stop-color="rgb(100%, 87.179565%, 77.270508%)" offset="0.320313"/><stop stop-opacity="1" stop-color="rgb(100%, 86.941528%, 77.503967%)" offset="0.328125"/><stop stop-opacity="1" stop-color="rgb(100%, 86.701965%, 77.735901%)" offset="0.335938"/><stop stop-opacity="1" stop-color="rgb(100%, 86.462402%, 77.96936%)" offset="0.34375"/><stop stop-opacity="1" stop-color="rgb(100%, 86.224365%, 78.20282%)" offset="0.351563"/><stop stop-opacity="1" stop-color="rgb(100%, 85.984802%, 78.434753%)" offset="0.359375"/><stop stop-opacity="1" stop-color="rgb(100%, 85.746765%, 78.668213%)" offset="0.367188"/><stop stop-opacity="1" stop-color="rgb(100%, 85.507202%, 78.901672%)" offset="0.375"/><stop stop-opacity="1" stop-color="rgb(100%, 85.267639%, 79.133606%)" offset="0.382812"/><stop stop-opacity="1" stop-color="rgb(100%, 85.029602%, 79.367065%)" offset="0.390625"/><stop stop-opacity="1" stop-color="rgb(100%, 84.790039%, 79.598999%)" offset="0.398437"/><stop stop-opacity="1" stop-color="rgb(100%, 84.550476%, 79.832458%)" offset="0.40625"/><stop stop-opacity="1" stop-color="rgb(100%, 84.312439%, 80.065918%)" offset="0.414062"/><stop stop-opacity="1" stop-color="rgb(100%, 84.072876%, 80.297852%)" offset="0.421875"/><stop stop-opacity="1" stop-color="rgb(100%, 83.834839%, 80.531311%)" offset="0.429687"/><stop stop-opacity="1" stop-color="rgb(100%, 83.595276%, 80.764771%)" offset="0.4375"/><stop stop-opacity="1" stop-color="rgb(100%, 83.355713%, 80.996704%)" offset="0.445312"/><stop stop-opacity="1" stop-color="rgb(100%, 83.117676%, 81.230164%)" offset="0.453125"/><stop stop-opacity="1" stop-color="rgb(100%, 82.878113%, 81.462097%)" offset="0.460938"/><stop stop-opacity="1" stop-color="rgb(100%, 82.640076%, 81.695557%)" offset="0.46875"/><stop stop-opacity="1" stop-color="rgb(100%, 82.400513%, 81.929016%)" offset="0.476562"/><stop stop-opacity="1" stop-color="rgb(100%, 82.16095%, 82.16095%)" offset="0.484375"/><stop stop-opacity="1" stop-color="rgb(100%, 81.922913%, 82.394409%)" offset="0.492188"/><stop stop-opacity="1" stop-color="rgb(100%, 81.68335%, 82.627869%)" offset="0.5"/><stop stop-opacity="1" stop-color="rgb(100%, 81.443787%, 82.859802%)" offset="0.507812"/><stop stop-opacity="1" stop-color="rgb(100%, 81.20575%, 83.093262%)" offset="0.515625"/><stop stop-opacity="1" stop-color="rgb(100%, 80.966187%, 83.325195%)" offset="0.523438"/><stop stop-opacity="1" stop-color="rgb(100%, 80.728149%, 83.558655%)" offset="0.53125"/><stop stop-opacity="1" stop-color="rgb(100%, 80.488586%, 83.792114%)" offset="0.539062"/><stop stop-opacity="1" stop-color="rgb(100%, 80.249023%, 84.024048%)" offset="0.546875"/><stop stop-opacity="1" stop-color="rgb(100%, 80.010986%, 84.257507%)" offset="0.554688"/><stop stop-opacity="1" stop-color="rgb(100%, 79.771423%, 84.490967%)" offset="0.5625"/><stop stop-opacity="1" stop-color="rgb(100%, 79.53186%, 84.7229%)" offset="0.570312"/><stop stop-opacity="1" stop-color="rgb(100%, 79.293823%, 84.95636%)" offset="0.578125"/><stop stop-opacity="1" stop-color="rgb(100%, 79.05426%, 85.188293%)" offset="0.585938"/><stop stop-opacity="1" stop-color="rgb(100%, 78.816223%, 85.421753%)" offset="0.59375"/><stop stop-opacity="1" stop-color="rgb(100%, 78.57666%, 85.655212%)" offset="0.601562"/><stop stop-opacity="1" stop-color="rgb(100%, 78.337097%, 85.887146%)" offset="0.609375"/><stop stop-opacity="1" stop-color="rgb(100%, 78.09906%, 86.120605%)" offset="0.617188"/><stop stop-opacity="1" stop-color="rgb(100%, 77.859497%, 86.354065%)" offset="0.625"/><stop stop-opacity="1" stop-color="rgb(100%, 77.62146%, 86.585999%)" offset="0.632813"/><stop stop-opacity="1" stop-color="rgb(100%, 77.381897%, 86.819458%)" offset="0.640625"/><stop stop-opacity="1" stop-color="rgb(100%, 77.142334%, 87.051392%)" offset="0.648438"/><stop stop-opacity="1" stop-color="rgb(100%, 76.904297%, 87.284851%)" offset="0.65625"/><stop stop-opacity="1" stop-color="rgb(100%, 76.664734%, 87.518311%)" offset="0.664063"/><stop stop-opacity="1" stop-color="rgb(100%, 76.425171%, 87.750244%)" offset="0.671875"/><stop stop-opacity="1" stop-color="rgb(100%, 76.187134%, 87.983704%)" offset="0.679688"/><stop stop-opacity="1" stop-color="rgb(100%, 75.947571%, 88.217163%)" offset="0.6875"/><stop stop-opacity="1" stop-color="rgb(100%, 75.709534%, 88.449097%)" offset="0.695313"/><stop stop-opacity="1" stop-color="rgb(100%, 75.469971%, 88.682556%)" offset="0.703125"/><stop stop-opacity="1" stop-color="rgb(100%, 75.230408%, 88.91449%)" offset="0.710938"/><stop stop-opacity="1" stop-color="rgb(100%, 74.992371%, 89.147949%)" offset="0.71875"/><stop stop-opacity="1" stop-color="rgb(100%, 74.752808%, 89.381409%)" offset="0.726563"/><stop stop-opacity="1" stop-color="rgb(100%, 74.514771%, 89.613342%)" offset="0.734375"/><stop stop-opacity="1" stop-color="rgb(100%, 74.275208%, 89.846802%)" offset="0.742188"/><stop stop-opacity="1" stop-color="rgb(100%, 74.035645%, 90.080261%)" offset="0.75"/><stop stop-opacity="1" stop-color="rgb(100%, 73.797607%, 90.312195%)" offset="0.757812"/><stop stop-opacity="1" stop-color="rgb(100%, 73.558044%, 90.545654%)" offset="0.765625"/><stop stop-opacity="1" stop-color="rgb(100%, 73.318481%, 90.777588%)" offset="0.773437"/><stop stop-opacity="1" stop-color="rgb(100%, 73.080444%, 91.011047%)" offset="0.78125"/><stop stop-opacity="1" stop-color="rgb(100%, 72.840881%, 91.244507%)" offset="0.789062"/><stop stop-opacity="1" stop-color="rgb(100%, 72.602844%, 91.47644%)" offset="0.796875"/><stop stop-opacity="1" stop-color="rgb(100%, 72.363281%, 91.7099%)" offset="0.804687"/><stop stop-opacity="1" stop-color="rgb(100%, 72.123718%, 91.941833%)" offset="0.8125"/><stop stop-opacity="1" stop-color="rgb(100%, 71.885681%, 92.175293%)" offset="0.820312"/><stop stop-opacity="1" stop-color="rgb(100%, 71.646118%, 92.408752%)" offset="0.828125"/><stop stop-opacity="1" stop-color="rgb(100%, 71.406555%, 92.640686%)" offset="0.835937"/><stop stop-opacity="1" stop-color="rgb(100%, 71.168518%, 92.874146%)" offset="0.84375"/><stop stop-opacity="1" stop-color="rgb(100%, 70.928955%, 93.107605%)" offset="0.851562"/><stop stop-opacity="1" stop-color="rgb(100%, 70.690918%, 93.339539%)" offset="0.859375"/><stop stop-opacity="1" stop-color="rgb(100%, 70.451355%, 93.572998%)" offset="0.867187"/><stop stop-opacity="1" stop-color="rgb(100%, 70.211792%, 93.804932%)" offset="0.875"/><stop stop-opacity="1" stop-color="rgb(100%, 69.973755%, 94.038391%)" offset="0.882812"/><stop stop-opacity="1" stop-color="rgb(100%, 69.734192%, 94.271851%)" offset="0.890625"/><stop stop-opacity="1" stop-color="rgb(100%, 69.496155%, 94.503784%)" offset="0.898438"/><stop stop-opacity="1" stop-color="rgb(100%, 69.256592%, 94.737244%)" offset="0.90625"/><stop stop-opacity="1" stop-color="rgb(100%, 69.017029%, 94.970703%)" offset="0.914062"/><stop stop-opacity="1" stop-color="rgb(100%, 68.778992%, 95.202637%)" offset="0.921875"/><stop stop-opacity="1" stop-color="rgb(100%, 68.539429%, 95.436096%)" offset="0.929688"/><stop stop-opacity="1" stop-color="rgb(100%, 68.299866%, 95.66803%)" offset="0.9375"/><stop stop-opacity="1" stop-color="rgb(100%, 68.061829%, 95.901489%)" offset="0.945312"/><stop stop-opacity="1" stop-color="rgb(100%, 67.822266%, 96.134949%)" offset="0.953125"/><stop stop-opacity="1" stop-color="rgb(100%, 67.584229%, 96.366882%)" offset="0.960938"/><stop stop-opacity="1" stop-color="rgb(100%, 67.344666%, 96.600342%)" offset="0.96875"/><stop stop-opacity="1" stop-color="rgb(100%, 67.105103%, 96.833801%)" offset="0.976562"/><stop stop-opacity="1" stop-color="rgb(100%, 66.867065%, 97.065735%)" offset="0.984375"/><stop stop-opacity="1" stop-color="rgb(100%, 66.627502%, 97.299194%)" offset="0.992188"/><stop stop-opacity="1" stop-color="rgb(100%, 66.389465%, 97.531128%)" offset="1"/></linearGradient><clipPath id="b6ca61c726"><rect x="0" width="144" y="0" height="27"/></clipPath><clipPath id="ccdce5a4c2"><rect x="0" width="384" y="0" height="354"/></clipPath></defs><g transform="matrix(1, 0, 0, 1, 0, 16)"><g clip-path="url(#ccdce5a4c2)"><g clip-path="url(#ddec6bd3ea)"><g clip-path="url(#ca7c37ae28)"><path stroke-linecap="butt" transform="matrix(0.787961, 0, 0, 0.787961, 22.886638, 54.527635)" fill="none" stroke-linejoin="miter" d="M 429.233166 24.74706 L 429.233166 283.563929 C 429.233166 290.12755 426.625564 296.418513 421.985421 301.063614 C 417.345278 305.703757 411.049357 308.311359 404.485736 308.311359 L 24.747532 308.311359 C 18.183911 308.311359 11.88799 305.703757 7.247847 301.063614 C 2.607704 296.418513 0.000102241 290.12755 0.000102241 283.563929 L 0.000102241 24.74706 C 0.000102241 18.183439 2.607704 11.887518 7.247847 7.247375 C 11.88799 2.607232 18.183911 -0.0003699 24.747532 -0.0003699 L 404.485736 -0.0003699 C 411.049357 -0.0003699 417.345278 2.607232 421.985421 7.247375 C 426.625564 11.887518 429.233166 18.183439 429.233166 24.74706 Z M 429.233166 24.74706 " stroke="url(#f9a294963b)" stroke-width="34.265667" stroke-miterlimit="4"/></g></g><g clip-path="url(#b208127e63)"><g transform="matrix(1, 0, 0, 1, 49, 123)"><g clip-path="url(#f44b597b70)"><g clip-path="url(#b43d27f5d7)"><path fill="#93020c" d="M 0.535156 0.890625 L 26.113281 0.890625 L 26.113281 26.464844 L 0.535156 26.464844 Z M 0.535156 0.890625 " fill-opacity="1" fill-rule="nonzero"/></g></g></g></g><g clip-path="url(#2c9e56edcb)"><g transform="matrix(1, 0, 0, 1, 92, 123)"><g clip-path="url(#568dc1f6fc)"><g clip-path="url(#37d1a15ebc)"><path fill="#ff751f" d="M 0.761719 0.890625 L 26.335938 0.890625 L 26.335938 26.464844 L 0.761719 26.464844 Z M 0.761719 0.890625 " fill-opacity="1" fill-rule="nonzero"/></g></g></g></g><g clip-path="url(#8612336552)"><g transform="matrix(1, 0, 0, 1, 135, 123)"><g clip-path="url(#7f68dd9194)"><g clip-path="url(#44bcc783dd)"><path fill="#ffde59" d="M 0.988281 0.890625 L 26.5625 0.890625 L 26.5625 26.464844 L 0.988281 26.464844 Z M 0.988281 0.890625 " fill-opacity="1" fill-rule="nonzero"/></g></g></g></g><g clip-path="url(#9a6f75e9b3)"><g transform="matrix(1, 0, 0, 1, 179, 123)"><g clip-path="url(#b739963d9f)"><g clip-path="url(#392e1bf34e)"><path fill="#c1ff72" d="M 0.210938 0.890625 L 25.789062 0.890625 L 25.789062 26.464844 L 0.210938 26.464844 Z M 0.210938 0.890625 " fill-opacity="1" fill-rule="nonzero"/></g></g></g></g><g clip-path="url(#090ce66db4)"><g transform="matrix(1, 0, 0, 1, 222, 123)"><g clip-path="url(#66675a28d5)"><g clip-path="url(#4d36aad293)"><path fill="#5ce1e6" d="M 0.4375 0.890625 L 26.011719 0.890625 L 26.011719 26.464844 L 0.4375 26.464844 Z M 0.4375 0.890625 " fill-opacity="1" fill-rule="nonzero"/></g></g></g></g><g clip-path="url(#2e1698186f)"><g transform="matrix(1, 0, 0, 1, 265, 123)"><g clip-path="url(#b14f7dac7f)"><g clip-path="url(#daa434ec3c)"><path fill="#ff66c4" d="M 0.664062 0.890625 L 26.238281 0.890625 L 26.238281 26.464844 L 0.664062 26.464844 Z M 0.664062 0.890625 " fill-opacity="1" fill-rule="nonzero"/></g></g></g></g><g clip-path="url(#ea44b52e8f)"><g transform="matrix(1, 0, 0, 1, 308, 123)"><g clip-path="url(#6e36db50ac)"><g clip-path="url(#629863b665)"><path fill="#cb6ce6" d="M 0.886719 0.890625 L 26.464844 0.890625 L 26.464844 26.464844 L 0.886719 26.464844 Z M 0.886719 0.890625 " fill-opacity="1" fill-rule="nonzero"/></g></g></g></g><g clip-path="url(#5391087fcd)"><g transform="matrix(1, 0, 0, 1, 49, 161)"><g clip-path="url(#b6de959ea3)"><g clip-path="url(#7e5774bd17)"><path fill="#93020c" d="M 0.535156 0.832031 L 26.113281 0.832031 L 26.113281 26.40625 L 0.535156 26.40625 Z M 0.535156 0.832031 " fill-opacity="1" fill-rule="nonzero"/></g></g></g></g><g clip-path="url(#f9b70f0b9c)"><g transform="matrix(1, 0, 0, 1, 92, 161)"><g clip-path="url(#e975775134)"><g clip-path="url(#cad650e110)"><path fill="#ff751f" d="M 0.761719 0.832031 L 26.335938 0.832031 L 26.335938 26.40625 L 0.761719 26.40625 Z M 0.761719 0.832031 " fill-opacity="1" fill-rule="nonzero"/></g></g></g></g><g clip-path="url(#9dfa84a85c)"><g transform="matrix(1, 0, 0, 1, 135, 161)"><g clip-path="url(#eecc10d4d0)"><g clip-path="url(#8c6ab47f45)"><path fill="#ffde59" d="M 0.988281 0.832031 L 26.5625 0.832031 L 26.5625 26.40625 L 0.988281 26.40625 Z M 0.988281 0.832031 " fill-opacity="1" fill-rule="nonzero"/></g></g></g></g><g clip-path="url(#eebfaebf0e)"><g transform="matrix(1, 0, 0, 1, 179, 161)"><g clip-path="url(#68fd040237)"><g clip-path="url(#a628baadc0)"><path fill="#c1ff72" d="M 0.210938 0.832031 L 25.789062 0.832031 L 25.789062 26.40625 L 0.210938 26.40625 Z M 0.210938 0.832031 " fill-opacity="1" fill-rule="nonzero"/></g></g></g></g><g clip-path="url(#b1bf96aa53)"><g transform="matrix(1, 0, 0, 1, 222, 161)"><g clip-path="url(#aaa3a7f870)"><g clip-path="url(#460b230d98)"><path fill="#5ce1e6" d="M 0.4375 0.832031 L 26.011719 0.832031 L 26.011719 26.40625 L 0.4375 26.40625 Z M 0.4375 0.832031 " fill-opacity="1" fill-rule="nonzero"/></g></g></g></g><g clip-path="url(#af656e3850)"><g transform="matrix(1, 0, 0, 1, 265, 161)"><g clip-path="url(#9b7aea97d1)"><g clip-path="url(#37d75e9d92)"><path fill="#ff66c4" d="M 0.664062 0.832031 L 26.238281 0.832031 L 26.238281 26.40625 L 0.664062 26.40625 Z M 0.664062 0.832031 " fill-opacity="1" fill-rule="nonzero"/></g></g></g></g><g clip-path="url(#34b9064906)"><g transform="matrix(1, 0, 0, 1, 308, 161)"><g clip-path="url(#34bd773581)"><g clip-path="url(#bd2218dcc9)"><path fill="#cb6ce6" d="M 0.886719 0.832031 L 26.464844 0.832031 L 26.464844 26.40625 L 0.886719 26.40625 Z M 0.886719 0.832031 " fill-opacity="1" fill-rule="nonzero"/></g></g></g></g><g clip-path="url(#32f9827b91)"><g transform="matrix(1, 0, 0, 1, 49, 199)"><g clip-path="url(#8c8f73904b)"><g clip-path="url(#4bca2c9ad7)"><path fill="#93020c" d="M 0.535156 0.773438 L 26.113281 0.773438 L 26.113281 26.347656 L 0.535156 26.347656 Z M 0.535156 0.773438 " fill-opacity="1" fill-rule="nonzero"/></g></g></g></g><g clip-path="url(#590aa54e13)"><g transform="matrix(1, 0, 0, 1, 92, 199)"><g clip-path="url(#b525c2b75f)"><g clip-path="url(#5e6f8f987d)"><path fill="#ff751f" d="M 0.761719 0.773438 L 26.335938 0.773438 L 26.335938 26.347656 L 0.761719 26.347656 Z M 0.761719 0.773438 " fill-opacity="1" fill-rule="nonzero"/></g></g></g></g><g clip-path="url(#6320cd9bad)"><g transform="matrix(1, 0, 0, 1, 135, 199)"><g clip-path="url(#16a5c97d16)"><g clip-path="url(#f1a32e2ab0)"><path fill="#ffde59" d="M 0.988281 0.773438 L 26.5625 0.773438 L 26.5625 26.347656 L 0.988281 26.347656 Z M 0.988281 0.773438 " fill-opacity="1" fill-rule="nonzero"/></g></g></g></g><g clip-path="url(#b71bca718c)"><g transform="matrix(1, 0, 0, 1, 179, 199)"><g clip-path="url(#8409296fda)"><g clip-path="url(#210188a992)"><path fill="#c1ff72" d="M 0.210938 0.773438 L 25.789062 0.773438 L 25.789062 26.347656 L 0.210938 26.347656 Z M 0.210938 0.773438 " fill-opacity="1" fill-rule="nonzero"/></g></g></g></g><g clip-path="url(#1b7ef48c30)"><g transform="matrix(1, 0, 0, 1, 222, 199)"><g clip-path="url(#535b22550a)"><g clip-path="url(#8663164e0b)"><path fill="#5ce1e6" d="M 0.4375 0.773438 L 26.011719 0.773438 L 26.011719 26.347656 L 0.4375 26.347656 Z M 0.4375 0.773438 " fill-opacity="1" fill-rule="nonzero"/></g></g></g></g><g clip-path="url(#f4287bc377)"><g transform="matrix(1, 0, 0, 1, 265, 199)"><g clip-path="url(#5c4cd0590c)"><g clip-path="url(#700455accf)"><path fill="#ff66c4" d="M 0.664062 0.773438 L 26.238281 0.773438 L 26.238281 26.347656 L 0.664062 26.347656 Z M 0.664062 0.773438 " fill-opacity="1" fill-rule="nonzero"/></g></g></g></g><g clip-path="url(#b170e49fa7)"><g transform="matrix(1, 0, 0, 1, 308, 199)"><g clip-path="url(#7c21a0cc90)"><g clip-path="url(#117410c545)"><path fill="#cb6ce6" d="M 0.886719 0.773438 L 26.464844 0.773438 L 26.464844 26.347656 L 0.886719 26.347656 Z M 0.886719 0.773438 " fill-opacity="1" fill-rule="nonzero"/></g></g></g></g><g clip-path="url(#5dc610684b)"><g transform="matrix(1, 0, 0, 1, 49, 237)"><g clip-path="url(#efe72f9685)"><g clip-path="url(#7edc2844e9)"><path fill="#93020c" d="M 0.535156 0.714844 L 26.113281 0.714844 L 26.113281 26.289062 L 0.535156 26.289062 Z M 0.535156 0.714844 " fill-opacity="1" fill-rule="nonzero"/></g></g></g></g><g clip-path="url(#4a63ca0dbd)"><g transform="matrix(1, 0, 0, 1, 92, 237)"><g clip-path="url(#d712167981)"><g clip-path="url(#30b991f003)"><path fill="#ff751f" d="M 0.761719 0.714844 L 26.335938 0.714844 L 26.335938 26.289062 L 0.761719 26.289062 Z M 0.761719 0.714844 " fill-opacity="1" fill-rule="nonzero"/></g></g></g></g><g clip-path="url(#9b5a9d9a4c)"><g transform="matrix(1, 0, 0, 1, 135, 237)"><g clip-path="url(#75e94223f2)"><g clip-path="url(#a7ddf758e0)"><path fill="#ffde59" d="M 0.988281 0.714844 L 26.5625 0.714844 L 26.5625 26.289062 L 0.988281 26.289062 Z M 0.988281 0.714844 " fill-opacity="1" fill-rule="nonzero"/></g></g></g></g><g clip-path="url(#78ec1e2f76)"><g transform="matrix(1, 0, 0, 1, 179, 237)"><g clip-path="url(#bcea822626)"><g clip-path="url(#c463ab5d92)"><path fill="#c1ff72" d="M 0.210938 0.714844 L 25.789062 0.714844 L 25.789062 26.289062 L 0.210938 26.289062 Z M 0.210938 0.714844 " fill-opacity="1" fill-rule="nonzero"/></g></g></g></g><g clip-path="url(#e8c025b8be)"><g transform="matrix(1, 0, 0, 1, 222, 237)"><g clip-path="url(#3931887f36)"><g clip-path="url(#c72bc6acde)"><path fill="#5ce1e6" d="M 0.4375 0.714844 L 26.011719 0.714844 L 26.011719 26.289062 L 0.4375 26.289062 Z M 0.4375 0.714844 " fill-opacity="1" fill-rule="nonzero"/></g></g></g></g><g clip-path="url(#4297ed9048)"><g transform="matrix(1, 0, 0, 1, 265, 237)"><g clip-path="url(#3bdf014b4a)"><g clip-path="url(#79b2be3522)"><path fill="#ff66c4" d="M 0.664062 0.714844 L 26.238281 0.714844 L 26.238281 26.289062 L 0.664062 26.289062 Z M 0.664062 0.714844 " fill-opacity="1" fill-rule="nonzero"/></g></g></g></g><g clip-path="url(#aa86f7cff3)"><g transform="matrix(1, 0, 0, 1, 308, 237)"><g clip-path="url(#21eae399f0)"><g clip-path="url(#04fb3f248d)"><path fill="#cb6ce6" d="M 0.886719 0.714844 L 26.464844 0.714844 L 26.464844 26.289062 L 0.886719 26.289062 Z M 0.886719 0.714844 " fill-opacity="1" fill-rule="nonzero"/></g></g></g></g><g clip-path="url(#b72ee6a029)"><g transform="matrix(1, 0, 0, 1, 120, 79)"><g clip-path="url(#b6ca61c726)"><g clip-path="url(#ea4a8ac623)"><path fill="url(#9e7acc527b)" d="M 0.769531 0.464844 L 0.769531 26.039062 L 143.230469 26.039062 L 143.230469 0.464844 Z M 0.769531 0.464844 " fill-rule="nonzero"/></g></g></g></g></g></g></svg>