<svg xmlns="http://www.w3.org/2000/svg" xmlns:xlink="http://www.w3.org/1999/xlink" width="512" zoomAndPan="magnify" viewBox="0 0 384 383.999986" height="512" preserveAspectRatio="xMidYMid meet" version="1.0"><defs><clipPath id="e0819893c6"><path d="M 10 61 L 205 61 L 205 201 L 10 201 Z M 10 61 " clip-rule="nonzero"/></clipPath><clipPath id="d982993b54"><path d="M 6.628906 159.40625 L 182.304688 58.265625 L 207.9375 102.792969 L 32.265625 203.933594 Z M 6.628906 159.40625 " clip-rule="nonzero"/></clipPath><clipPath id="945ae78ab2"><path d="M 15.078125 154.542969 L 173.765625 63.179688 C 178.429688 60.496094 184.390625 62.097656 187.078125 66.765625 L 202.984375 94.394531 C 205.671875 99.0625 204.066406 105.023438 199.398438 107.707031 L 40.714844 199.070312 C 36.046875 201.753906 30.085938 200.152344 27.398438 195.484375 L 11.492188 167.855469 C 8.804688 163.1875 10.410156 157.226562 15.078125 154.542969 Z M 15.078125 154.542969 " clip-rule="nonzero"/></clipPath><clipPath id="701a709102"><path d="M 0 0 L 195 0 L 195 140 L 0 140 Z M 0 0 " clip-rule="nonzero"/></clipPath><clipPath id="7593308745"><path d="M -3.371094 98.40625 L 172.304688 -2.734375 L 197.9375 41.792969 L 22.265625 142.933594 Z M -3.371094 98.40625 " clip-rule="nonzero"/></clipPath><clipPath id="eecde9fce4"><path d="M 5.078125 93.542969 L 163.765625 2.179688 C 168.429688 -0.503906 174.390625 1.097656 177.078125 5.765625 L 192.984375 33.394531 C 195.671875 38.0625 194.066406 44.023438 189.398438 46.707031 L 30.714844 138.070312 C 26.046875 140.753906 20.085938 139.152344 17.398438 134.484375 L 1.492188 106.855469 C -1.195312 102.1875 0.410156 96.226562 5.078125 93.542969 Z M 5.078125 93.542969 " clip-rule="nonzero"/></clipPath><clipPath id="cf58f2293e"><rect x="0" width="195" y="0" height="140"/></clipPath><clipPath id="4929d1cf04"><path d="M 65 59 L 260 59 L 260 198 L 65 198 Z M 65 59 " clip-rule="nonzero"/></clipPath><clipPath id="bc84cacb9c"><path d="M 62.34375 156.972656 L 238.019531 55.832031 L 263.65625 100.359375 L 87.980469 201.5 Z M 62.34375 156.972656 " clip-rule="nonzero"/></clipPath><clipPath id="9fd5ad7f64"><path d="M 70.792969 152.109375 L 229.480469 60.746094 C 234.148438 58.0625 240.109375 59.664062 242.792969 64.332031 L 258.699219 91.960938 C 261.386719 96.628906 259.78125 102.589844 255.117188 105.273438 L 96.429688 196.636719 C 91.761719 199.320312 85.800781 197.71875 83.113281 193.050781 L 67.207031 165.421875 C 64.523438 160.753906 66.128906 154.792969 70.792969 152.109375 Z M 70.792969 152.109375 " clip-rule="nonzero"/></clipPath><clipPath id="3215e8bed6"><path d="M 0 0 L 195 0 L 195 139 L 0 139 Z M 0 0 " clip-rule="nonzero"/></clipPath><clipPath id="3a2e1e1ff7"><path d="M -2.65625 97.972656 L 173.019531 -3.167969 L 198.65625 41.359375 L 22.980469 142.5 Z M -2.65625 97.972656 " clip-rule="nonzero"/></clipPath><clipPath id="2ef145864f"><path d="M 5.792969 93.109375 L 164.480469 1.746094 C 169.148438 -0.9375 175.109375 0.664062 177.792969 5.332031 L 193.699219 32.960938 C 196.386719 37.628906 194.78125 43.589844 190.117188 46.273438 L 31.429688 137.636719 C 26.761719 140.320312 20.800781 138.71875 18.113281 134.050781 L 2.207031 106.421875 C -0.476562 101.753906 1.128906 95.792969 5.792969 93.109375 Z M 5.792969 93.109375 " clip-rule="nonzero"/></clipPath><clipPath id="01d7bf47e9"><rect x="0" width="195" y="0" height="139"/></clipPath><clipPath id="59ddac69ee"><path d="M 118 47 L 314 47 L 314 187 L 118 187 Z M 118 47 " clip-rule="nonzero"/></clipPath><clipPath id="9a6f24fe5c"><path d="M 115.398438 145.296875 L 291.074219 44.15625 L 316.710938 88.683594 L 141.035156 189.824219 Z M 115.398438 145.296875 " clip-rule="nonzero"/></clipPath><clipPath id="0f6230f2b2"><path d="M 123.847656 140.433594 L 282.535156 49.074219 C 287.203125 46.386719 293.164062 47.992188 295.847656 52.65625 L 311.753906 80.285156 C 314.441406 84.953125 312.835938 90.914062 308.171875 93.601562 L 149.484375 184.960938 C 144.816406 187.648438 138.855469 186.042969 136.167969 181.375 L 120.261719 153.746094 C 117.578125 149.082031 119.179688 143.121094 123.847656 140.433594 Z M 123.847656 140.433594 " clip-rule="nonzero"/></clipPath><clipPath id="f2b5702292"><path d="M 0 0 L 196 0 L 196 140 L 0 140 Z M 0 0 " clip-rule="nonzero"/></clipPath><clipPath id="a11ce97266"><path d="M -2.601562 98.296875 L 173.074219 -2.84375 L 198.710938 41.683594 L 23.035156 142.824219 Z M -2.601562 98.296875 " clip-rule="nonzero"/></clipPath><clipPath id="bca7b2ee7e"><path d="M 5.847656 93.433594 L 164.535156 2.074219 C 169.203125 -0.613281 175.164062 0.992188 177.847656 5.65625 L 193.753906 33.285156 C 196.441406 37.953125 194.835938 43.914062 190.171875 46.601562 L 31.484375 137.960938 C 26.816406 140.648438 20.855469 139.042969 18.167969 134.375 L 2.261719 106.746094 C -0.421875 102.082031 1.179688 96.121094 5.847656 93.433594 Z M 5.847656 93.433594 " clip-rule="nonzero"/></clipPath><clipPath id="17527a01d7"><rect x="0" width="196" y="0" height="140"/></clipPath><clipPath id="7cb3aaa881"><path d="M 173 62 L 368 62 L 368 202 L 173 202 Z M 173 62 " clip-rule="nonzero"/></clipPath><clipPath id="ef39fbe8f5"><path d="M 170.167969 160.476562 L 345.84375 59.335938 L 371.480469 103.863281 L 195.804688 205.003906 Z M 170.167969 160.476562 " clip-rule="nonzero"/></clipPath><clipPath id="734afc88a8"><path d="M 178.617188 155.613281 L 337.304688 64.253906 C 341.972656 61.566406 347.933594 63.171875 350.621094 67.835938 L 366.527344 95.464844 C 369.214844 100.132812 367.609375 106.09375 362.941406 108.78125 L 204.253906 200.140625 C 199.589844 202.828125 193.628906 201.222656 190.941406 196.554688 L 175.035156 168.925781 C 172.347656 164.261719 173.953125 158.300781 178.617188 155.613281 Z M 178.617188 155.613281 " clip-rule="nonzero"/></clipPath><clipPath id="c93c33d43b"><path d="M 0 0 L 195 0 L 195 140 L 0 140 Z M 0 0 " clip-rule="nonzero"/></clipPath><clipPath id="bab4b13232"><path d="M -2.832031 98.476562 L 172.84375 -2.664062 L 198.480469 41.863281 L 22.804688 143.003906 Z M -2.832031 98.476562 " clip-rule="nonzero"/></clipPath><clipPath id="32b51f53d4"><path d="M 5.617188 93.613281 L 164.304688 2.253906 C 168.972656 -0.433594 174.933594 1.171875 177.621094 5.835938 L 193.527344 33.464844 C 196.214844 38.132812 194.609375 44.09375 189.941406 46.78125 L 31.253906 138.140625 C 26.589844 140.828125 20.628906 139.222656 17.941406 134.554688 L 2.035156 106.925781 C -0.652344 102.261719 0.953125 96.300781 5.617188 93.613281 Z M 5.617188 93.613281 " clip-rule="nonzero"/></clipPath><clipPath id="faec7050ef"><rect x="0" width="195" y="0" height="140"/></clipPath><clipPath id="4972d7911a"><path d="M 153 107 L 348 107 L 348 246 L 153 246 Z M 153 107 " clip-rule="nonzero"/></clipPath><clipPath id="98114cac2a"><path d="M 149.746094 204.957031 L 325.421875 103.816406 L 351.058594 148.34375 L 175.382812 249.484375 Z M 149.746094 204.957031 " clip-rule="nonzero"/></clipPath><clipPath id="b3e1fc14b8"><path d="M 158.195312 200.09375 L 316.882812 108.734375 C 321.550781 106.046875 327.511719 107.652344 330.199219 112.316406 L 346.105469 139.945312 C 348.789062 144.613281 347.1875 150.574219 342.519531 153.261719 L 183.832031 244.621094 C 179.164062 247.308594 173.203125 245.703125 170.519531 241.035156 L 154.613281 213.40625 C 151.925781 208.742188 153.53125 202.78125 158.195312 200.09375 Z M 158.195312 200.09375 " clip-rule="nonzero"/></clipPath><clipPath id="c2db184c7b"><path d="M 0 0 L 195 0 L 195 139 L 0 139 Z M 0 0 " clip-rule="nonzero"/></clipPath><clipPath id="69fee55a16"><path d="M -3.253906 97.957031 L 172.421875 -3.183594 L 198.058594 41.34375 L 22.382812 142.484375 Z M -3.253906 97.957031 " clip-rule="nonzero"/></clipPath><clipPath id="dc271a8b7c"><path d="M 5.195312 93.09375 L 163.882812 1.734375 C 168.550781 -0.953125 174.511719 0.652344 177.199219 5.316406 L 193.105469 32.945312 C 195.789062 37.613281 194.1875 43.574219 189.519531 46.261719 L 30.832031 137.621094 C 26.164062 140.308594 20.203125 138.703125 17.519531 134.035156 L 1.613281 106.40625 C -1.074219 101.742188 0.53125 95.78125 5.195312 93.09375 Z M 5.195312 93.09375 " clip-rule="nonzero"/></clipPath><clipPath id="c5d06eb3b5"><rect x="0" width="195" y="0" height="139"/></clipPath><clipPath id="d10cf604a7"><path d="M 122 157 L 317 157 L 317 297 L 122 297 Z M 122 157 " clip-rule="nonzero"/></clipPath><clipPath id="8706884b65"><path d="M 119.0625 255.484375 L 294.738281 154.34375 L 320.371094 198.871094 L 144.695312 300.011719 Z M 119.0625 255.484375 " clip-rule="nonzero"/></clipPath><clipPath id="56799109fc"><path d="M 127.511719 250.621094 L 286.195312 159.261719 C 290.863281 156.574219 296.824219 158.179688 299.511719 162.84375 L 315.417969 190.472656 C 318.105469 195.140625 316.5 201.101562 311.832031 203.789062 L 153.144531 295.148438 C 148.480469 297.835938 142.519531 296.230469 139.832031 291.5625 L 123.925781 263.933594 C 121.238281 259.269531 122.84375 253.308594 127.511719 250.621094 Z M 127.511719 250.621094 " clip-rule="nonzero"/></clipPath><clipPath id="194bdaa35d"><path d="M 0 0 L 195 0 L 195 140 L 0 140 Z M 0 0 " clip-rule="nonzero"/></clipPath><clipPath id="7c93b00046"><path d="M -2.9375 98.484375 L 172.738281 -2.65625 L 198.371094 41.871094 L 22.695312 143.011719 Z M -2.9375 98.484375 " clip-rule="nonzero"/></clipPath><clipPath id="997b87682e"><path d="M 5.511719 93.621094 L 164.195312 2.261719 C 168.863281 -0.425781 174.824219 1.179688 177.511719 5.84375 L 193.417969 33.472656 C 196.105469 38.140625 194.5 44.101562 189.832031 46.789062 L 31.144531 138.148438 C 26.480469 140.835938 20.519531 139.230469 17.832031 134.5625 L 1.925781 106.933594 C -0.761719 102.269531 0.84375 96.308594 5.511719 93.621094 Z M 5.511719 93.621094 " clip-rule="nonzero"/></clipPath><clipPath id="f7717f6b09"><rect x="0" width="195" y="0" height="140"/></clipPath><clipPath id="dd3736ce7e"><path d="M 93 207 L 291 207 L 291 351 L 93 351 Z M 93 207 " clip-rule="nonzero"/></clipPath><clipPath id="44ae9eb309"><path d="M 90.3125 304.761719 L 266.078125 203.566406 L 294.542969 253.011719 L 118.78125 354.207031 Z M 90.3125 304.761719 " clip-rule="nonzero"/></clipPath><clipPath id="09bc46faa0"><path d="M 98.761719 299.894531 L 257.449219 208.535156 C 262.113281 205.847656 268.078125 207.453125 270.761719 212.121094 L 289.5 244.667969 C 292.1875 249.332031 290.582031 255.292969 285.914062 257.980469 L 127.230469 349.339844 C 122.5625 352.027344 116.601562 350.421875 113.914062 345.757812 L 95.175781 313.210938 C 92.488281 308.542969 94.09375 302.582031 98.761719 299.894531 Z M 98.761719 299.894531 " clip-rule="nonzero"/></clipPath><clipPath id="cba7289571"><path d="M 0 0 L 198 0 L 198 144 L 0 144 Z M 0 0 " clip-rule="nonzero"/></clipPath><clipPath id="7ae9f39a68"><path d="M -2.6875 97.761719 L 173.078125 -3.433594 L 201.542969 46.011719 L 25.78125 147.207031 Z M -2.6875 97.761719 " clip-rule="nonzero"/></clipPath><clipPath id="ab3eb18ba3"><path d="M 5.761719 92.894531 L 164.449219 1.535156 C 169.113281 -1.152344 175.078125 0.453125 177.761719 5.121094 L 196.5 37.667969 C 199.1875 42.332031 197.582031 48.292969 192.914062 50.980469 L 34.230469 142.339844 C 29.5625 145.027344 23.601562 143.421875 20.914062 138.757812 L 2.175781 106.210938 C -0.511719 101.542969 1.09375 95.582031 5.761719 92.894531 Z M 5.761719 92.894531 " clip-rule="nonzero"/></clipPath><clipPath id="4084604161"><rect x="0" width="198" y="0" height="144"/></clipPath></defs><g clip-path="url(#e0819893c6)"><g clip-path="url(#d982993b54)"><g clip-path="url(#945ae78ab2)"><g transform="matrix(1, 0, 0, 1, 10, 61)"><g clip-path="url(#cf58f2293e)"><g clip-path="url(#701a709102)"><g clip-path="url(#7593308745)"><g clip-path="url(#eecde9fce4)"><path fill="#cb6ce6" d="M -3.371094 98.40625 L 172.128906 -2.636719 L 197.765625 41.894531 L 22.265625 142.933594 Z M -3.371094 98.40625 " fill-opacity="1" fill-rule="nonzero"/></g></g></g></g></g></g></g></g><g clip-path="url(#4929d1cf04)"><g clip-path="url(#bc84cacb9c)"><g clip-path="url(#9fd5ad7f64)"><g transform="matrix(1, 0, 0, 1, 65, 59)"><g clip-path="url(#01d7bf47e9)"><g clip-path="url(#3215e8bed6)"><g clip-path="url(#3a2e1e1ff7)"><g clip-path="url(#2ef145864f)"><path fill="#ff66c4" d="M -2.65625 97.972656 L 172.84375 -3.070312 L 198.480469 41.460938 L 22.980469 142.5 Z M -2.65625 97.972656 " fill-opacity="1" fill-rule="nonzero"/></g></g></g></g></g></g></g></g><g clip-path="url(#59ddac69ee)"><g clip-path="url(#9a6f24fe5c)"><g clip-path="url(#0f6230f2b2)"><g transform="matrix(1, 0, 0, 1, 118, 47)"><g clip-path="url(#17527a01d7)"><g clip-path="url(#f2b5702292)"><g clip-path="url(#a11ce97266)"><g clip-path="url(#bca7b2ee7e)"><path fill="#5ce1e6" d="M -2.601562 98.296875 L 172.898438 -2.742188 L 198.535156 41.785156 L 23.035156 142.824219 Z M -2.601562 98.296875 " fill-opacity="1" fill-rule="nonzero"/></g></g></g></g></g></g></g></g><g clip-path="url(#7cb3aaa881)"><g clip-path="url(#ef39fbe8f5)"><g clip-path="url(#734afc88a8)"><g transform="matrix(1, 0, 0, 1, 173, 62)"><g clip-path="url(#faec7050ef)"><g clip-path="url(#c93c33d43b)"><g clip-path="url(#bab4b13232)"><g clip-path="url(#32b51f53d4)"><path fill="#c1ff72" d="M -2.832031 98.476562 L 172.671875 -2.5625 L 198.308594 41.964844 L 22.804688 143.003906 Z M -2.832031 98.476562 " fill-opacity="1" fill-rule="nonzero"/></g></g></g></g></g></g></g></g><g clip-path="url(#4972d7911a)"><g clip-path="url(#98114cac2a)"><g clip-path="url(#b3e1fc14b8)"><g transform="matrix(1, 0, 0, 1, 153, 107)"><g clip-path="url(#c5d06eb3b5)"><g clip-path="url(#c2db184c7b)"><g clip-path="url(#69fee55a16)"><g clip-path="url(#dc271a8b7c)"><path fill="#ffde59" d="M -3.253906 97.957031 L 172.25 -3.082031 L 197.882812 41.445312 L 22.382812 142.484375 Z M -3.253906 97.957031 " fill-opacity="1" fill-rule="nonzero"/></g></g></g></g></g></g></g></g><g clip-path="url(#d10cf604a7)"><g clip-path="url(#8706884b65)"><g clip-path="url(#56799109fc)"><g transform="matrix(1, 0, 0, 1, 122, 157)"><g clip-path="url(#f7717f6b09)"><g clip-path="url(#194bdaa35d)"><g clip-path="url(#7c93b00046)"><g clip-path="url(#997b87682e)"><path fill="#ff751f" d="M -2.9375 98.484375 L 172.5625 -2.554688 L 198.199219 41.972656 L 22.695312 143.011719 Z M -2.9375 98.484375 " fill-opacity="1" fill-rule="nonzero"/></g></g></g></g></g></g></g></g><g clip-path="url(#dd3736ce7e)"><g clip-path="url(#44ae9eb309)"><g clip-path="url(#09bc46faa0)"><g transform="matrix(1, 0, 0, 1, 93, 207)"><g clip-path="url(#4084604161)"><g clip-path="url(#cba7289571)"><g clip-path="url(#7ae9f39a68)"><g clip-path="url(#ab3eb18ba3)"><path fill="#93020c" d="M -2.6875 97.761719 L 172.882812 -3.320312 L 201.351562 46.125 L 25.78125 147.207031 Z M -2.6875 97.761719 " fill-opacity="1" fill-rule="nonzero"/></g></g></g></g></g></g></g></g></svg>